<svg preserveAspectRatio="none" width="100%" height="100%" overflow="visible" style="display: block;" viewBox="0 0 23.7951 23.0026" fill="none" xmlns="http://www.w3.org/2000/svg">
<path id="Vector" d="M12.8818 1C13.4122 1.00004 13.9209 1.2109 14.2959 1.58594C14.6709 1.961 14.8818 2.4696 14.8818 3V3.47266L17.375 3.8877H17.376C18.0761 4.00488 18.7123 4.36639 19.1709 4.9082C19.6294 5.44994 19.8809 6.13696 19.8809 6.84668V9.55762L21.2568 10.0166L21.4736 10.1016C21.6854 10.1975 21.8816 10.3258 22.0547 10.4824C22.2855 10.6913 22.4703 10.9464 22.5977 11.2305C22.725 11.5145 22.7924 11.8216 22.7949 12.1328C22.7974 12.4437 22.7348 12.7514 22.6123 13.0371L20.4619 18.0527L20.7754 18.21C21.232 18.438 21.5841 18.8323 21.7598 19.3115C21.9354 19.7907 21.9209 20.319 21.7197 20.7881C21.5185 21.2571 21.1459 21.6319 20.6777 21.835C20.2095 22.038 19.6811 22.0535 19.2012 21.8799L19.1738 21.8701L19.1465 21.8584L19.04 21.8125L19.0137 21.8018L18.9873 21.7881L16.3281 20.46V20.459C16.2037 20.3969 16.0676 20.3621 15.9287 20.3555C15.7907 20.349 15.6524 20.3705 15.5234 20.4199L15.4189 20.4668L14.1182 21.1182C13.4681 21.443 12.7547 21.6224 12.0283 21.6436C11.3019 21.6647 10.579 21.5277 9.91113 21.2412L9.89941 21.2363L9.8877 21.2305L9.6748 21.1328L9.66016 21.126L9.64551 21.1182L8.32813 20.459C8.20372 20.3969 8.0676 20.3621 7.92871 20.3555C7.79073 20.349 7.6524 20.3705 7.52344 20.4199L7.41895 20.4668L4.7793 21.7861L4.78027 21.7871C4.32358 22.0181 3.79505 22.0654 3.30469 21.9189C2.81447 21.7724 2.39873 21.4435 2.14355 21C1.88841 20.5565 1.81282 20.0317 1.93262 19.5342C2.05245 19.0367 2.35894 18.6039 2.78809 18.3252L2.80957 18.3115L2.83203 18.2988L2.93359 18.2393L2.95996 18.2246L2.9873 18.2109L3.87305 17.7676L1.29688 13.2568C1.13179 12.9679 1.03251 12.6462 1.00684 12.3145C0.981199 11.9826 1.02963 11.6489 1.14844 11.3379C1.26723 11.027 1.45298 10.7459 1.69336 10.5156C1.93373 10.2854 2.22235 10.1111 2.53809 10.0059L3.88184 9.55762V6.84668C3.88181 6.13693 4.13324 5.44995 4.5918 4.9082C5.05046 4.36637 5.68655 4.00483 6.38672 3.8877H6.3877L8.88184 3.47266V3C8.88184 2.46957 9.0927 1.96101 9.46777 1.58594C9.84284 1.21091 10.3514 1 10.8818 1H12.8818ZM7.88184 7.69336V8.22461L10.9326 7.20801L11.1152 7.1543L7.88184 7.69336ZM12.8301 7.20801L15.8818 8.22461V7.69336L12.6436 7.1543C12.706 7.17071 12.7685 7.18749 12.8301 7.20801ZM11.6641 7.0625C11.8088 7.052 11.9539 7.05296 12.0986 7.06348L11.8818 7.02637L11.6641 7.0625Z" fill="url(#paint0_linear_0_7)" stroke="url(#paint1_linear_0_7)" stroke-width="2"/>
<defs>
<linearGradient id="paint0_linear_0_7" x1="11.735" y1="2" x2="4.90228" y2="17.9331" gradientUnits="userSpaceOnUse">
<stop stop-color="#3E236D"/>
<stop offset="1" stop-color="#42518E"/>
</linearGradient>
<linearGradient id="paint1_linear_0_7" x1="4.09802" y1="8.04432" x2="21.6212" y2="9.08685" gradientUnits="userSpaceOnUse">
<stop stop-color="#6EF5FB"/>
<stop offset="1" stop-color="#938BEC"/>
</linearGradient>
</defs>
</svg>
